Coordinates
version=1
nRows=17
nColumns=40
inDegrees=yes
endheader
time	pelvis_tilt	pelvis_list	pelvis_rotation	pelvis_tx	pelvis_ty	pelvis_tz	hip_flexion_r	hip_adduction_r	hip_rotation_r	knee_angle_r	knee_angle_r_beta	ankle_angle_r	subtalar_angle_r	mtp_angle_r	hip_flexion_l	hip_adduction_l	hip_rotation_l	knee_angle_l	knee_angle_l_beta	ankle_angle_l	subtalar_angle_l	mtp_angle_l	lumbar_extension	lumbar_bending	lumbar_rotation	arm_flex_r	arm_add_r	arm_rot_r	elbow_flex_r	pro_sup_r	wrist_flex_r	wrist_dev_r	arm_flex_l	arm_add_l	arm_rot_l	elbow_flex_l	pro_sup_l	wrist_flex_l	wrist_dev_l
1760624909.80971503	      3.59236202	     -1.59578524	     -0.02410347	      0.17008022	      0.88134760	      0.00147941	     80.00000000	     -7.00000000	      0.00000000	     80.00000000	      1.39626340	      0.00000000	      0.00000000	      0.00000000	     80.00000000	     -7.00000000	      0.00000000	     80.00000000	      1.39626340	      0.00000000	      0.00000000	      0.00000000	    -11.63995564	     -0.39171737	      2.26217365	      4.05435966	     -5.69594836	     16.91125343	      0.00000000	      0.00000000	    -10.75009267	    -18.02107479	      4.93735812	     -6.17211215	     15.90701600	      0.00000000	     11.04189284	     -1.52219968	     -7.71078024
1760624909.81971502	      3.59644143	     -1.59457743	     -0.03116652	      0.17003014	      0.88128698	      0.00145436	     80.00000000	     -7.00000000	      0.00000000	     80.00000000	      1.39626340	      0.00000000	      0.00000000	      0.00000000	     80.00000000	     -7.00000000	      0.00000000	     80.00000000	      1.39626340	      0.00000000	      0.00000000	      0.00000000	    -11.63773162	     -0.38795651	      2.25577024	      4.05198332	     -5.63342616	     16.90814853	      0.00000000	      0.00000000	    -10.75016497	    -18.01922475	      4.94195571	     -6.12088131	     15.90716437	      0.00000000	     11.04134979	     -1.52132326	     -7.71076250
1760624909.82971501	      3.59848126	     -1.59739495	     -0.03378274	      0.16998504	      0.88125893	      0.00148493	     80.00000000	     -7.00000000	      0.00000000	     80.00000000	      1.39626340	      0.00000000	      0.00000000	      0.00000000	     80.00000000	     -7.00000000	      0.00000000	     80.00000000	      1.39626340	      0.00000000	      0.00000000	      0.00000000	    -11.63749483	     -0.38883910	      2.25251391	      4.05126588	     -5.57593057	     16.90609451	      0.00000000	      0.00000000	    -10.75008785	    -18.01748303	      4.94066231	     -6.07699462	     15.90731779	      0.00000000	     11.04060996	     -1.52049260	     -7.71078505
1760624909.83971500	      3.60245811	     -1.60121057	     -0.03801069	      0.16995172	      0.88127797	      0.00151340	     80.00000000	     -7.00000000	      0.00000000	     80.00000000	      1.39626340	      0.00000000	      0.00000000	      0.00000000	     80.00000000	     -7.00000000	      0.00000000	     80.00000000	      1.39626340	      0.00000000	      0.00000000	      0.00000000	    -11.63557107	     -0.39028706	      2.24777558	      4.04855399	     -5.52873946	     16.90464479	      0.00000000	      0.00000000	    -10.74996188	    -18.01567226	      4.93686101	     -6.04732190	     15.90821011	      0.00000000	     11.04018639	     -1.51987861	     -7.71121915
1760624909.84971499	      3.60669475	     -1.60457733	     -0.04237234	      0.16991984	      0.88130933	      0.00154001	     80.00000000	     -7.00000000	      0.00000000	     80.00000000	      1.39626340	      0.00000000	      0.00000000	      0.00000000	     80.00000000	     -7.00000000	      0.00000000	     80.00000000	      1.39626340	      0.00000000	      0.00000000	      0.00000000	    -11.63368828	     -0.39094828	      2.24353416	      4.04233559	     -5.48185954	     16.90365543	      0.00000000	      0.00000000	    -10.74990405	    -18.01375236	      4.92716593	     -6.02174761	     15.90935661	      0.00000000	     11.03969558	     -1.51968187	     -7.71178197
1760624909.85971498	      3.60823295	     -1.60334349	     -0.04373903	      0.16983338	      0.88131712	      0.00152260	     80.00000000	     -7.00000000	      0.00000000	     80.00000000	      1.39626340	      0.00000000	      0.00000000	      0.00000000	     80.00000000	     -7.00000000	      0.00000000	     80.00000000	      1.39626340	      0.00000000	      0.00000000	      0.00000000	    -11.63266225	     -0.38928481	      2.24266903	      4.04059593	     -5.47792632	     16.90352467	      0.00000000	      0.00000000	    -10.74991206	    -18.01359451	      4.92655043	     -6.02084575	     15.90945884	      0.00000000	     11.03966313	     -1.51973330	     -7.71192184
1760624909.86971498	      3.61637319	     -1.60242596	     -0.05397260	      0.16981975	      0.88133676	      0.00151156	     80.00000000	     -7.00000000	      0.00000000	     80.00000000	      1.39626340	      0.00000000	      0.00000000	      0.00000000	     80.00000000	     -7.00000000	      0.00000000	     80.00000000	      1.39626340	      0.00000000	      0.00000000	      0.00000000	    -11.62696215	     -0.38414983	      2.23497602	      4.02502445	     -5.41956643	     16.90237917	      0.00000000	      0.00000000	    -10.74986814	    -18.01203398	      4.91657933	     -5.99011790	     15.91001364	      0.00000000	     11.03873508	     -1.52042926	     -7.71302811
1760624909.87971497	      3.61855176	     -1.61118159	     -0.05445326	      0.16984797	      0.88142178	      0.00160225	     80.00000000	     -7.00000000	      0.00000000	     80.00000000	      1.39626340	      0.00000000	      0.00000000	      0.00000000	     80.00000000	     -7.00000000	      0.00000000	     80.00000000	      1.39626340	      0.00000000	      0.00000000	      0.00000000	    -11.62682457	     -0.39121378	      2.23429196	      4.00521882	     -5.38768635	     16.90311140	      0.00000000	      0.00000000	    -10.74972304	    -18.01091798	      4.89443208	     -5.97769752	     15.91136215	      0.00000000	     11.03779752	     -1.52149163	     -7.71354695
1760624909.88971496	      3.62114049	     -1.60961368	     -0.05518108	      0.16975551	      0.88139492	      0.00158409	     80.00000000	     -7.00000000	      0.00000000	     80.00000000	      1.39626340	      0.00000000	      0.00000000	      0.00000000	     80.00000000	     -7.00000000	      0.00000000	     80.00000000	      1.39626340	      0.00000000	      0.00000000	      0.00000000	    -11.62500429	     -0.38939236	      2.23415081	      4.00369573	     -5.38527280	     16.90322436	      0.00000000	      0.00000000	    -10.74969864	    -18.01085420	      4.89337870	     -5.97825415	     15.91153081	      0.00000000	     11.03778050	     -1.52157155	     -7.71361147
1760624909.89971495	      3.62317950	     -1.60748819	     -0.05659298	      0.16967865	      0.88142846	      0.00156331	     80.00000000	     -7.00000000	      0.00000000	     80.00000000	      1.39626340	      0.00000000	      0.00000000	      0.00000000	     80.00000000	     -7.00000000	      0.00000000	     80.00000000	      1.39626340	      0.00000000	      0.00000000	      0.00000000	    -11.62340463	     -0.38685506	      2.23350403	      4.00074760	     -5.38132711	     16.90329897	      0.00000000	      0.00000000	    -10.74967954	    -18.01075277	      4.89226728	     -5.97821389	     15.91172981	      0.00000000	     11.03775123	     -1.52167757	     -7.71366805
1760624909.90971494	      3.64459405	     -1.60909620	     -0.06054406	      0.16989309	      0.88148222	      0.00163407	     80.00000000	     -7.00000000	      0.00000000	     80.00000000	      1.39626340	      0.00000000	      0.00000000	      0.00000000	     80.00000000	     -7.00000000	      0.00000000	     80.00000000	      1.39626340	      0.00000000	      0.00000000	      0.00000000	    -11.60755155	     -0.38549561	      2.23299299	      3.94422855	     -5.33635599	     16.90776336	      0.00000000	      0.00000000	    -10.74896078	    -18.00961639	      4.86026775	     -5.96689232	     15.91641032	      0.00000000	     11.03711674	     -1.52372059	     -7.71416791
1760624909.91971493	      3.64679937	     -1.60739120	     -0.06069883	      0.16981767	      0.88147421	      0.00161093	     80.00000000	     -7.00000000	      0.00000000	     80.00000000	      1.39626340	      0.00000000	      0.00000000	      0.00000000	     80.00000000	     -7.00000000	      0.00000000	     80.00000000	      1.39626340	      0.00000000	      0.00000000	      0.00000000	    -11.60610928	     -0.38360829	      2.23372016	      3.94226559	     -5.33634882	     16.90806697	      0.00000000	      0.00000000	    -10.74894256	    -18.00960455	      4.85831006	     -5.96853860	     15.91659694	      0.00000000	     11.03711571	     -1.52383786	     -7.71423314
1760624909.92971492	      3.68369551	     -1.59471202	     -0.06733557	      0.17019802	      0.88153100	      0.00151091	     80.00000000	     -7.00000000	      0.00000000	     80.00000000	      1.39626340	      0.00000000	      0.00000000	      0.00000000	     80.00000000	     -7.00000000	      0.00000000	     80.00000000	      1.39626340	      0.00000000	      0.00000000	      0.00000000	    -11.58149143	     -0.36319639	      2.24860723	      3.85120681	     -5.33268538	     16.92144944	      0.00000000	      0.00000000	    -10.74942066	    -18.01060632	      4.81035326	     -5.98079687	     15.92526905	      0.00000000	     11.03724603	     -1.52797968	     -7.71821049
1760624909.93971491	      3.68585558	     -1.59681053	     -0.06735810	      0.17007729	      0.88149546	      0.00158033	     80.00000000	     -7.00000000	      0.00000000	     80.00000000	      1.39626340	      0.00000000	      0.00000000	      0.00000000	     80.00000000	     -7.00000000	      0.00000000	     80.00000000	      1.39626340	      0.00000000	      0.00000000	      0.00000000	    -11.57991015	     -0.36547031	      2.24787262	      3.84924800	     -5.33160984	     16.92176246	      0.00000000	      0.00000000	    -10.74943233	    -18.01061278	      4.81099447	     -5.97674687	     15.92559208	      0.00000000	     11.03734106	     -1.52770496	     -7.71808106
1760624909.94971490	      3.68652984	     -1.59539181	     -0.06837385	      0.16998614	      0.88150691	      0.00151783	     80.00000000	     -7.00000000	      0.00000000	     80.00000000	      1.39626340	      0.00000000	      0.00000000	      0.00000000	     80.00000000	     -7.00000000	      0.00000000	     80.00000000	      1.39626340	      0.00000000	      0.00000000	      0.00000000	    -11.57965690	     -0.36355326	      2.24805040	      3.84635953	     -5.32951422	     16.92198792	      0.00000000	      0.00000000	    -10.74948234	    -18.01058444	      4.81004671	     -5.97689438	     15.92586910	      0.00000000	     11.03739140	     -1.52773620	     -7.71814088
1760624909.95971489	      3.69951598	     -1.59220943	     -0.07038846	      0.17014247	      0.88152224	      0.00150270	     80.00000000	     -7.00000000	      0.00000000	     80.00000000	      1.39626340	      0.00000000	      0.00000000	      0.00000000	     80.00000000	     -7.00000000	      0.00000000	     80.00000000	      1.39626340	      0.00000000	      0.00000000	      0.00000000	    -11.56871274	     -0.35537384	      2.26372533	      3.77428267	     -5.31093366	     16.93634072	      0.00000000	      0.00000000	    -10.75146105	    -18.01108557	      4.79158769	     -5.96408394	     15.93802880	      0.00000000	     11.03970232	     -1.52794085	     -7.71944999
1760624909.96971512	      3.70117692	     -1.58998263	     -0.07031643	      0.17005522	      0.88151654	      0.00148813	     80.00000000	     -7.00000000	      0.00000000	     80.00000000	      1.39626340	      0.00000000	      0.00000000	      0.00000000	     80.00000000	     -7.00000000	      0.00000000	     80.00000000	      1.39626340	      0.00000000	      0.00000000	      0.00000000	    -11.56739146	     -0.35309048	      2.26485052	      3.77320022	     -5.31115791	     16.93679154	      0.00000000	      0.00000000	    -10.75150899	    -18.01110234	      4.79069730	     -5.96570126	     15.93843131	      0.00000000	     11.03984313	     -1.52797474	     -7.71951640
